# xmcd
#
# Track frame offsets: 
#        150
#        12124
#        25110
#        34821
#        51358
#        66077
#        81791
#        97343
#        117981
#        129572
#        146854
#        159717
#        176071
#        190905
#
# Disc length: 2719 seconds
#
# Revision: 0
# Processed by: cddbd v1.5.2PL0 Copyright (c) Steve Scherf et al.
# Submitted via: ExactAudioCopy v0.99pb5
#
DISCID=c80a9d0e
DTITLE=Roberto Mezzasoma - Mean Old Blues
DYEAR=2010
DGENRE=Blues
TTITLE0=Doggone My Bad Luck Soul
TTITLE1=Hey, Hey
TTITLE2=Rank Rag
TTITLE3=Crossroads Blues
TTITLE4=Train Blows Again
TTITLE5=I`m Going Down Get Road Feelin Bad
TTITLE6=Stairs
TTITLE7=Strange City Streets
TTITLE8=John Henry
TTITLE9=You Got To Move
TTITLE10=Dark Was The Night
TTITLE11=Love In Vine 
TTITLE12=Bottleneck Mandolin Blues
TTITLE13=My Creole Belle
EXTD=
EXTT0=
EXTT1=
EXTT2=
EXTT3=
EXTT4=
EXTT5=
EXTT6=
EXTT7=
EXTT8=
EXTT9=
EXTT10=
EXTT11=
EXTT12=
EXTT13=
PLAYORDER=
